# xmcd CD database file
#
# Track frame offsets:
#	182
#	21345
#	43182
#	57862
#	82790
#	96347
#	115642
#	130960
#	142487
#	168727
#	199815
#	224625
#	237800
#	253765
#	273957
#	285410
#
# Disc length: 4229 seconds
#
# Revision: 0
# Processed by: cddbd v1.5.2PL0 Copyright (c) Steve Scherf et al.
# Submitted via: CDex 1.70beta2
#
DISCID=f4108310
DTITLE=Celia Cruz - La Reina de la Salsa
DYEAR=1900
DGENRE=Salsa
TTITLE0=Yerbero moderno
TTITLE1=Quimbara
TTITLE2=Lo tuyo es mental
TTITLE3=Canto a La Habana
TTITLE4=Burundanga
TTITLE5=Usted abusó
TTITLE6=Pun pun catalu
TTITLE7=Yo soy la voz
TTITLE8=La dicha mía
TTITLE9=Isadora
TTITLE10=Bamboleo
TTITLE11=Sabroso son cubano
TTITLE12=Bemba colorá
TTITLE13=Besitos de coco
TTITLE14=Cumbiando (Cumbia)
TTITLE15=La candela
EXTD=
EXTT0=
EXTT1=
EXTT2=
EXTT3=
EXTT4=
EXTT5=
EXTT6=
EXTT7=
EXTT8=
EXTT9=
EXTT10=
EXTT11=
EXTT12=
EXTT13=
EXTT14=
EXTT15=
PLAYORDER=
